<svg xmlns="http://www.w3.org/2000/svg" viewBox="0 0 1200 1200" role="img" aria-label="Артём Бандин">
  <defs>
    <clipPath id="clip">
      <circle cx="600" cy="600" r="560"/>
    </clipPath>
    <linearGradient id="bg" x1="0" x2="1" y1="0" y2="1">
      <stop offset="0%" stop-color="#ececec"/>
      <stop offset="100%" stop-color="#d8d8d8"/>
    </linearGradient>
  </defs>
  <rect width="1200" height="1200" fill="url(#bg)"/>
  <g clip-path="url(#clip)">
    <rect width="1200" height="1200" fill="#dcdcdc"/>
    <circle cx="610" cy="445" r="170" fill="#f0d6c5"/>
    <path d="M410 1020c25-175 126-270 192-286 65-16 162 4 224 68 39 40 67 102 74 190H410z" fill="#fafafa"/>
    <path d="M475 395c38-97 114-146 194-146 74 0 134 30 175 86 30 41 41 87 40 146-32-15-66-23-101-23-79 0-146 33-199 100-8 10-17 21-25 33-14-27-37-45-68-64-10-6-19-13-28-20 0-41 4-75 12-112z" fill="#4a3a2f"/>
    <ellipse cx="532" cy="472" rx="31" ry="24" fill="#1f1f1f"/>
    <ellipse cx="699" cy="472" rx="31" ry="24" fill="#1f1f1f"/>
    <path d="M568 530c21 22 45 33 72 33 25 0 49-9 70-28" fill="none" stroke="#6a4a3a" stroke-width="14" stroke-linecap="round"/>
    <path d="M454 590c42 45 96 69 165 69 82 0 145-26 188-79" fill="none" stroke="#e9c7b1" stroke-width="34" stroke-linecap="round" opacity=".45"/>
    <path d="M330 1130c17-156 93-279 225-341 67-31 136-45 211-43 91 2 165 24 221 66 79 58 129 154 153 290H330z" fill="#ffffff"/>
    <path d="M320 1120c28-198 136-322 322-372 124-33 247-17 365 48 92 51 149 145 172 281" fill="none" stroke="#efefef" stroke-width="16" opacity=".6"/>
  </g>
  <circle cx="600" cy="600" r="560" fill="none" stroke="#cfcfcf" stroke-width="10"/>
</svg>